<svg fill="none" height="22" viewBox="0 0 18 22" width="18" xmlns="http://www.w3.org/2000/svg"><g fill="#fff"><path d="m14.8025 11.5547c-.0289-2.74544 2.2515-4.07976 2.3574-4.14695-1.2894-1.88149-3.2907-2.13107-3.9931-2.15027-1.6839-.17279-3.30997.99834-4.16632.99834-.8756 0-2.1938-.98874-3.60823-.95994-1.82817.0288-3.54087 1.08473-4.474202 2.72623-1.934008 3.34059-.490719 8.25549 1.366312 10.95289.92371 1.3247 2.01099 2.803 3.42541 2.7454 1.38556-.0575 1.90515-.8831 3.57937-.8831 1.65496 0 2.14566.8831 3.58896.8544 1.4914-.0288 2.4247-1.3248 3.3196-2.6687 1.068-1.5167 1.501-3.0142 1.5203-3.091-.0289 0-2.8866-1.0847-2.9155-4.3773z"/><path d="m12.0695 3.48458c.7505-.93114 1.2604-2.19826 1.1161-3.48458-1.0776.047997-2.4343.748753-3.21372 1.6607-.69278.80635-1.29896 2.12146-1.14501 3.35979 1.21233.07679 2.46323-.62397 3.24263-1.53591z"/></g></svg>