<svg width="18" height="16" viewBox="0 0 18 16" fill="none" xmlns="http://www.w3.org/2000/svg"><path d="M15.1531 15.3293C15.0973 15.4706 15.0123 15.5982 14.904 15.7035C14.7956 15.8088 14.6663 15.8893 14.5248 15.9398C14.3832 15.9902 14.2327 16.0093 14.0833 15.9958C13.9339 15.9823 13.789 15.9366 13.6585 15.8616L9.609 12.6669L7.01 15.1014C6.94969 15.1466 6.87915 15.1757 6.80486 15.186C6.73057 15.1963 6.65492 15.1875 6.58487 15.1603L7.08309 10.6342L7.09904 10.6471L7.10923 10.5577C7.10923 10.5577 14.3961 3.82181 14.693 3.53482C14.9935 3.24857 14.8944 3.18648 14.8944 3.18648C14.9115 2.83733 14.3551 3.18648 14.3551 3.18648L4.70009 9.49305L0.679252 8.10271C0.679252 8.10271 0.0616917 7.8778 0.0035158 7.38331C-0.0576435 6.8926 0.699375 6.62604 0.699375 6.62604L16.6858 0.177901C16.6858 0.177901 18 -0.416584 18 0.567909L15.1531 15.3293Z" fill="#86888F"/></svg>