<svg viewBox="0 0 406 241" xmlns="http://www.w3.org/2000/svg"><path d="m297.12 70.6 20.49-20.55a1.66 1.66 0 0 1 2.35 0l20.5 20.55a1.66 1.66 0 0 1 0 2.35l-2.72 2.72a1.64 1.64 0 0 1 -2.36 0l-13-13.44v34.42a1.67 1.67 0 0 1 -1.66 1.66h-3.88a1.67 1.67 0 0 1 -1.66-1.66v-34.45l-13 13.44a1.66 1.66 0 0 1 -2.36 0l-2.69-2.64a1.65 1.65 0 0 1 0-2.35z" fill="#1e1e1e"/><rect fill="#222" height="123.2" rx="22.49" width="186.71" x="121.48" y="57.35"/><rect fill="#2b2b2b" height="89.11" rx="11.12" width="153.67" x="138.09" y="74.35"/><path d="m280.63 163.46h-131.42a11.15 11.15 0 0 1 -11.12-11.12l.1-57.79 34.46 12.57 38.07-18.46 34.41 13 46.62-16.14v66.87a11.15 11.15 0 0 1 -11.12 11.07z" fill="#353535"/><rect fill="#474748" height="105.03" rx="22.49" width="106.46" x="87.07" y="88.6"/><rect fill="#747475" height="73.08" rx="9.01" width="72" x="104.3" y="104.57"/><path d="m167.22 104.79h-54a9 9 0 0 0 -9 9v55.06a9 9 0 0 0 3.82 7.35l65-69.28a9 9 0 0 0 -5.82-2.13z" fill="#7f7f7f"/><path d="m292.57 45.07 5.52-5.53a.45.45 0 0 1 .64 0l5.52 5.53a.47.47 0 0 1 0 .64l-.73.73a.45.45 0 0 1 -.64 0l-3.5-3.62v9.28a.45.45 0 0 1 -.45.45h-1a.45.45 0 0 1 -.45-.45v-9.29l-3.5 3.62a.44.44 0 0 1 -.63 0l-.73-.73a.46.46 0 0 1 0-.64z" fill="#353535"/><path d="m197.16 193.05 5.52-5.53a.45.45 0 0 1 .64 0l5.52 5.53a.47.47 0 0 1 0 .64l-.73.73a.45.45 0 0 1 -.64 0l-3.5-3.62v9.28a.45.45 0 0 1 -.45.45h-1a.45.45 0 0 1 -.45-.45v-9.28l-3.49 3.62a.46.46 0 0 1 -.64 0l-.73-.73a.46.46 0 0 1 0-.64z" fill="#353535"/><path d="m78.63 66.73 11.27-11.3a.91.91 0 0 1 1.29 0l11.28 11.3a.92.92 0 0 1 0 1.29l-1.5 1.5a.9.9 0 0 1 -1.3 0l-7.14-7.39v19a.92.92 0 0 1 -.92.91h-2.13a.91.91 0 0 1 -.91-.91v-19l-7.14 7.37a.91.91 0 0 1 -1.3 0l-1.5-1.5a.91.91 0 0 1 0-1.29z" fill="#1e1e1e"/><path d="m68 91.74 5.52-5.53a.45.45 0 0 1 .64 0l5.52 5.53a.47.47 0 0 1 0 .64l-.73.73a.45.45 0 0 1 -.64 0l-3.5-3.62v9.28a.45.45 0 0 1 -.45.45h-1a.45.45 0 0 1 -.45-.45v-9.29l-3.5 3.62a.46.46 0 0 1 -.64 0l-.77-.72a.46.46 0 0 1 0-.64z" fill="#747475"/></svg>