<svg width="20" height="20" viewBox="0 0 20 20" fill="#242424" xmlns="http://www.w3.org/2000/svg">
    <path fill-rule="evenodd" clip-rule="evenodd" d="M3.2442 15.0292C2.91877 15.3546 2.91877 15.8823 3.2442 16.2077C3.56964 16.5331 4.09728 16.5331 4.42271 16.2077L9.72595 10.9045L15.0292 16.2077C15.3546 16.5331 15.8823 16.5331 16.2077 16.2077C16.5331 15.8823 16.5331 15.3546 16.2077 15.0292L10.9045 9.72596L16.2078 4.42259C16.5333 4.09715 16.5333 3.56951 16.2078 3.24408C15.8824 2.91864 15.3548 2.91864 15.0293 3.24408L9.72595 8.54745L4.42259 3.24409C4.09715 2.91865 3.56951 2.91865 3.24408 3.24409C2.91864 3.56953 2.91864 4.09716 3.24408 4.4226L8.54744 9.72596L3.2442 15.0292Z"/>
</svg>
