<svg width="48" height="48" viewBox="0 0 48 48" fill="none" xmlns="http://www.w3.org/2000/svg">
    <path fill-rule="evenodd" clip-rule="evenodd"
          d="M13.9224 12.5378C13.5401 12.1554 12.9202 12.1554 12.5378 12.5378C12.1554 12.9202 12.1554 13.5401 12.5378 13.9224L15.7617 17.1463H15.1883C14.4093 17.1463 13.6622 17.4558 13.1113 18.0066C12.5605 18.5574 12.251 19.3046 12.251 20.0836V30.8534C12.251 31.6324 12.5605 32.3795 13.1113 32.9304C13.6622 33.4812 14.4093 33.7907 15.1883 33.7907H32.406L34.0775 35.4622C34.4599 35.8445 35.0798 35.8445 35.4622 35.4622C35.8445 35.0798 35.8445 34.4599 35.4622 34.0775L33.5131 32.1284C33.5101 32.1254 33.507 32.1223 33.504 32.1192L27.9175 26.5328C27.909 26.5239 27.9003 26.5152 27.8914 26.5067L22.4723 21.0876C22.4637 21.0787 22.455 21.0699 22.4461 21.0614L18.8178 17.4331C18.8148 17.4301 18.8117 17.427 18.8087 17.424L13.9224 12.5378ZM27.2539 28.6386L30.4479 31.8325H15.1883C14.9286 31.8325 14.6796 31.7293 14.496 31.5457C14.3123 31.3621 14.2092 31.1131 14.2092 30.8534V20.0836C14.2092 19.8239 14.3123 19.5748 14.496 19.3912C14.6796 19.2076 14.9286 19.1045 15.1883 19.1045H17.7198L20.3404 21.725C20.1214 21.9684 19.9267 22.2338 19.7597 22.5178C19.395 23.1378 19.1714 23.8305 19.1049 24.5467C19.0383 25.2629 19.1304 25.985 19.3746 26.6616C19.6188 27.3382 20.0091 27.9526 20.5177 28.4612C21.0263 28.9698 21.6408 29.3601 22.3173 29.6043C22.9939 29.8485 23.716 29.9406 24.4322 29.8741C25.1484 29.8075 25.8412 29.5839 26.4612 29.2193C26.7451 29.0523 27.0106 28.8576 27.2539 28.6386ZM21.7282 23.1128L25.8661 27.2507C25.7419 27.3548 25.6089 27.4488 25.4684 27.5314C25.0964 27.7502 24.6808 27.8844 24.251 27.9243C23.8213 27.9642 23.3881 27.909 22.9821 27.7624C22.5762 27.6159 22.2075 27.3818 21.9024 27.0766C21.5972 26.7714 21.363 26.4027 21.2165 25.9968C21.0699 25.5908 21.0147 25.1576 21.0546 24.7279C21.0946 24.2982 21.2287 23.8825 21.4475 23.5105C21.5302 23.37 21.6241 23.237 21.7282 23.1128ZM21.0627 14.2091C20.522 14.2091 20.0837 14.6474 20.0837 15.1882C20.0837 15.7289 20.522 16.1672 21.0627 16.1672H26.4132L28.0807 18.6685C28.2623 18.9409 28.568 19.1045 28.8954 19.1045H32.8117C33.0713 19.1045 33.3204 19.2076 33.504 19.3912C33.6876 19.5748 33.7908 19.8239 33.7908 20.0836V29.2282C33.7908 29.7689 34.2291 30.2072 34.7699 30.2072C35.3106 30.2072 35.7489 29.7689 35.7489 29.2282V20.0836C35.7489 19.3046 35.4395 18.5574 34.8886 18.0066C34.3378 17.4558 33.5907 17.1463 32.8117 17.1463H29.4194L27.7519 14.6451C27.5703 14.3727 27.2646 14.2091 26.9372 14.2091H21.0627Z"
          fill="#D3D3D3"/>
</svg>
