<svg width="24" height="24" viewBox="0 0 24 24" fill="none" xmlns="http://www.w3.org/2000/svg"><path d="M17.2303 15.6514C15.9847 16.4667 14.2709 16.7901 13.139 16.9119L14.0891 17.8772L17.5576 21.4527C18.8259 22.7929 16.7621 24.8876 15.4801 23.5942C14.6119 22.6851 13.339 21.373 12.0117 20.0047L8.54319 23.5895C7.26126 24.8782 5.19745 22.7648 6.47938 21.448C7.36127 20.5389 8.62047 19.2268 9.94785 17.8726L10.8843 16.9072C9.76602 16.7854 8.02496 16.4808 6.76577 15.6467C5.28382 14.6626 4.63377 14.0862 5.20654 12.8819C5.54294 12.1978 6.46574 11.6214 7.68857 12.6148C7.68857 12.6148 9.33871 13.9691 12.0026 13.9691C14.6664 13.9691 16.3166 12.6148 16.3166 12.6148C17.5394 11.6261 18.4577 12.1978 18.7986 12.8819C19.3623 14.0862 18.7122 14.6626 17.2303 15.6514ZM6.10207 6.0778C6.10207 2.7179 8.7523 0 11.998 0C15.2438 0 17.894 2.7179 17.894 6.0778C17.894 9.42363 15.2438 12.1415 11.998 12.1415C8.7523 12.1415 6.10207 9.42363 6.10207 6.0778V6.0778ZM9.10233 6.0778C9.10233 7.7226 10.4024 9.0628 11.998 9.0628C13.5936 9.0628 14.8937 7.7226 14.8937 6.0778C14.8937 4.41894 13.5936 3.07873 11.998 3.07873C10.4024 3.07873 9.10233 4.41894 9.10233 6.0778Z" fill="#86888F"/></svg>