<svg fill="none" height="48" viewBox="0 0 48 48" width="48" xmlns="http://www.w3.org/2000/svg"><rect fill="#fff" height="48" rx="4" width="48"/><g fill="#000"><path d="m4.68003 3h-1.68003v1.68003h1.68003z"/><path d="m6.3607 3h-1.68004v1.68003h1.68004z"/><path d="m8.03941 3h-1.68003v1.68003h1.68003z"/><path d="m9.7191 3h-1.68004v1.68003h1.68004z"/><path d="m11.3988 3h-1.68005v1.68003h1.68005z"/><path d="m13.0785 3h-1.6801v1.68003h1.6801z"/><path d="m14.7611 3h-1.68v1.68003h1.68z"/><path d="m21.4818 3h-1.68v1.68003h1.68z"/><path d="m26.5209 3h-1.6801v1.68003h1.6801z"/><path d="m28.2015 3h-1.68v1.68003h1.68z"/><path d="m29.8802 3h-1.68v1.68003h1.68z"/><path d="m31.5609 3h-1.68v1.68003h1.68z"/><path d="m34.9203 3h-1.6801v1.68003h1.6801z"/><path d="m36.6009 3h-1.68v1.68003h1.68z"/><path d="m38.2796 3h-1.68v1.68003h1.68z"/><path d="m39.9613 3h-1.6801v1.68003h1.6801z"/><path d="m41.64 3h-1.68v1.68003h1.68z"/><path d="m43.3197 3h-1.6801v1.68003h1.6801z"/><path d="m45.0003 3h-1.68v1.68003h1.68z"/><path d="m4.68003 4.68262h-1.68003v1.68003h1.68003z"/><path d="m14.7611 4.68262h-1.68v1.68003h1.68z"/><path d="m19.8011 4.68262h-1.68v1.68003h1.68z"/><path d="m28.2015 4.68262h-1.68v1.68003h1.68z"/><path d="m29.8802 4.68262h-1.68v1.68003h1.68z"/><path d="m31.5609 4.68262h-1.68v1.68003h1.68z"/><path d="m34.9203 4.68262h-1.6801v1.68003h1.6801z"/><path d="m45.0003 4.68262h-1.68v1.68003h1.68z"/><path d="m4.68003 6.36522h-1.68003v1.68003h1.68003z"/><path d="m8.03941 6.36522h-1.68003v1.68003h1.68003z"/><path d="m9.7191 6.36522h-1.68004v1.68003h1.68004z"/><path d="m11.3988 6.36522h-1.68005v1.68003h1.68005z"/><path d="m14.7611 6.36522h-1.68v1.68003h1.68z"/><path d="m18.1205 6.36522h-1.6801v1.68003h1.6801z"/><path d="m23.1615 6.36522h-1.6801v1.68003h1.6801z"/><path d="m29.8802 6.36522h-1.68v1.68003h1.68z"/><path d="m34.9203 6.36522h-1.6801v1.68003h1.6801z"/><path d="m38.2796 6.36522h-1.68v1.68003h1.68z"/><path d="m39.9613 6.36522h-1.6801v1.68003h1.6801z"/><path d="m41.64 6.36522h-1.68v1.68003h1.68z"/><path d="m45.0003 6.36522h-1.68v1.68003h1.68z"/><path d="m4.68003 8.03258h-1.68003v1.68003h1.68003z"/><path d="m8.03941 8.03258h-1.68003v1.68003h1.68003z"/><path d="m9.7191 8.03258h-1.68004v1.68003h1.68004z"/><path d="m11.3988 8.03258h-1.68005v1.68003h1.68005z"/><path d="m14.7611 8.03258h-1.68v1.68003h1.68z"/><path d="m19.8011 8.03258h-1.68v1.68003h1.68z"/><path d="m24.8412 8.03258h-1.6801v1.68003h1.6801z"/><path d="m28.2015 8.03258h-1.68v1.68003h1.68z"/><path d="m34.9203 8.03258h-1.6801v1.68003h1.6801z"/><path d="m38.2796 8.03258h-1.68v1.68003h1.68z"/><path d="m39.9613 8.03258h-1.6801v1.68003h1.6801z"/><path d="m41.64 8.03258h-1.68v1.68003h1.68z"/><path d="m45.0003 8.03258h-1.68v1.68003h1.68z"/><path d="m4.68003 9.72282h-1.68003v1.68008h1.68003z"/><path d="m8.03941 9.72282h-1.68003v1.68008h1.68003z"/><path d="m9.7191 9.72282h-1.68004v1.68008h1.68004z"/><path d="m11.3988 9.72282h-1.68005v1.68008h1.68005z"/><path d="m14.7611 9.72282h-1.68v1.68008h1.68z"/><path d="m19.8011 9.72282h-1.68v1.68008h1.68z"/><path d="m24.8412 9.72282h-1.6801v1.68008h1.6801z"/><path d="m26.5209 9.72282h-1.6801v1.68008h1.6801z"/><path d="m29.8802 9.72282h-1.68v1.68008h1.68z"/><path d="m34.9203 9.72282h-1.6801v1.68008h1.6801z"/><path d="m38.2796 9.72282h-1.68v1.68008h1.68z"/><path d="m39.9613 9.72282h-1.6801v1.68008h1.6801z"/><path d="m41.64 9.72282h-1.68v1.68008h1.68z"/><path d="m45.0003 9.72282h-1.68v1.68008h1.68z"/><path d="m4.68003 11.4054h-1.68003v1.6801h1.68003z"/><path d="m14.7611 11.4054h-1.68v1.6801h1.68z"/><path d="m21.4818 11.4054h-1.68v1.6801h1.68z"/><path d="m23.1615 11.4054h-1.6801v1.6801h1.6801z"/><path d="m24.8412 11.4054h-1.6801v1.6801h1.6801z"/><path d="m26.5209 11.4054h-1.6801v1.6801h1.6801z"/><path d="m29.8802 11.4054h-1.68v1.6801h1.68z"/><path d="m34.9203 11.4054h-1.6801v1.6801h1.6801z"/><path d="m45.0003 11.4054h-1.68v1.6801h1.68z"/><path d="m4.68003 13.0842h-1.68003v1.6801h1.68003z"/><path d="m6.3607 13.0842h-1.68004v1.6801h1.68004z"/><path d="m8.03941 13.0842h-1.68003v1.6801h1.68003z"/><path d="m9.7191 13.0842h-1.68004v1.6801h1.68004z"/><path d="m11.3988 13.0842h-1.68005v1.6801h1.68005z"/><path d="m13.0785 13.0842h-1.6801v1.6801h1.6801z"/><path d="m14.7611 13.0842h-1.68v1.6801h1.68z"/><path d="m18.1205 13.0842h-1.6801v1.6801h1.6801z"/><path d="m21.4818 13.0842h-1.68v1.6801h1.68z"/><path d="m24.8412 13.0842h-1.6801v1.6801h1.6801z"/><path d="m28.2015 13.0842h-1.68v1.6801h1.68z"/><path d="m31.5609 13.0842h-1.68v1.6801h1.68z"/><path d="m34.9203 13.0842h-1.6801v1.6801h1.6801z"/><path d="m36.6009 13.0842h-1.68v1.6801h1.68z"/><path d="m38.2796 13.0842h-1.68v1.6801h1.68z"/><path d="m39.9613 13.0842h-1.6801v1.6801h1.6801z"/><path d="m41.64 13.0842h-1.68v1.6801h1.68z"/><path d="m43.3197 13.0842h-1.6801v1.6801h1.6801z"/><path d="m45.0003 13.0842h-1.68v1.6801h1.68z"/><path d="m18.1205 14.7554h-1.6801v1.68h1.6801z"/><path d="m23.1615 14.7554h-1.6801v1.68h1.6801z"/><path d="m26.5209 14.7554h-1.6801v1.68h1.6801z"/><path d="m29.8802 14.7554h-1.68v1.68h1.68z"/><path d="m31.5609 14.7554h-1.68v1.68h1.68z"/><path d="m4.68003 16.438h-1.68003v1.6801h1.68003z"/><path d="m6.3607 16.438h-1.68004v1.6801h1.68004z"/><path d="m8.03941 16.438h-1.68003v1.6801h1.68003z"/><path d="m11.3988 16.438h-1.68005v1.6801h1.68005z"/><path d="m13.0785 16.438h-1.6801v1.6801h1.6801z"/><path d="m14.7611 16.438h-1.68v1.6801h1.68z"/><path d="m16.4398 16.438h-1.68v1.6801h1.68z"/><path d="m18.1205 16.438h-1.6801v1.6801h1.6801z"/><path d="m24.8412 16.438h-1.6801v1.6801h1.6801z"/><path d="m26.5209 16.438h-1.6801v1.6801h1.6801z"/><path d="m28.2015 16.438h-1.68v1.6801h1.68z"/><path d="m33.2406 16.438h-1.6801v1.6801h1.6801z"/><path d="m34.9203 16.438h-1.6801v1.6801h1.6801z"/><path d="m41.64 16.438h-1.68v1.6801h1.68z"/><path d="m9.7191 18.1244h-1.68004v1.6801h1.68004z"/><path d="m11.3988 18.1244h-1.68005v1.6801h1.68005z"/><path d="m13.0785 18.1244h-1.6801v1.6801h1.6801z"/><path d="m18.1205 18.1244h-1.6801v1.6801h1.6801z"/><path d="m19.8011 18.1244h-1.68v1.6801h1.68z"/><path d="m23.1615 18.1244h-1.6801v1.6801h1.6801z"/><path d="m24.8412 18.1244h-1.6801v1.6801h1.6801z"/><path d="m28.2015 18.1244h-1.68v1.6801h1.68z"/><path d="m31.5609 18.1244h-1.68v1.6801h1.68z"/><path d="m33.2406 18.1244h-1.6801v1.6801h1.6801z"/><path d="m34.9203 18.1244h-1.6801v1.6801h1.6801z"/><path d="m45.0003 18.1244h-1.68v1.6801h1.68z"/><path d="m4.68003 19.8032h-1.68003v1.6801h1.68003z"/><path d="m6.3607 19.8032h-1.68004v1.6801h1.68004z"/><path d="m8.03941 19.8032h-1.68003v1.6801h1.68003z"/><path d="m11.3988 19.8032h-1.68005v1.6801h1.68005z"/><path d="m13.0785 19.8032h-1.6801v1.6801h1.6801z"/><path d="m14.7611 19.8032h-1.68v1.6801h1.68z"/><path d="m16.4398 19.8032h-1.68v1.6801h1.68z"/><path d="m18.1205 19.8032h-1.6801v1.6801h1.6801z"/><path d="m21.4818 19.8032h-1.68v1.6801h1.68z"/><path d="m23.1615 19.8032h-1.6801v1.6801h1.6801z"/><path d="m24.8412 19.8032h-1.6801v1.6801h1.6801z"/><path d="m28.2015 19.8032h-1.68v1.6801h1.68z"/><path d="m31.5609 19.8032h-1.68v1.6801h1.68z"/><path d="m33.2406 19.8032h-1.6801v1.6801h1.6801z"/><path d="m34.9203 19.8032h-1.6801v1.6801h1.6801z"/><path d="m41.64 19.8032h-1.68v1.6801h1.68z"/><path d="m43.3197 19.8032h-1.6801v1.6801h1.6801z"/><path d="m45.0003 19.8032h-1.68v1.6801h1.68z"/><path d="m4.68003 21.4744h-1.68003v1.68h1.68003z"/><path d="m6.3607 21.4744h-1.68004v1.68h1.68004z"/><path d="m9.7191 21.4744h-1.68004v1.68h1.68004z"/><path d="m11.3988 21.4744h-1.68005v1.68h1.68005z"/><path d="m16.4398 21.4744h-1.68v1.68h1.68z"/><path d="m19.8011 21.4744h-1.68v1.68h1.68z"/><path d="m21.4818 21.4744h-1.68v1.68h1.68z"/><path d="m24.8412 21.4744h-1.6801v1.68h1.6801z"/><path d="m26.5209 21.4744h-1.6801v1.68h1.6801z"/><path d="m28.2015 21.4744h-1.68v1.68h1.68z"/><path d="m31.5609 21.4744h-1.68v1.68h1.68z"/><path d="m38.2796 21.4744h-1.68v1.68h1.68z"/><path d="m43.3197 21.4744h-1.6801v1.68h1.6801z"/><path d="m8.03941 23.157h-1.68003v1.68h1.68003z"/><path d="m9.7191 23.157h-1.68004v1.68h1.68004z"/><path d="m14.7611 23.157h-1.68v1.68h1.68z"/><path d="m21.4818 23.157h-1.68v1.68h1.68z"/><path d="m23.1615 23.157h-1.6801v1.68h1.6801z"/><path d="m26.5209 23.157h-1.6801v1.68h1.6801z"/><path d="m29.8802 23.157h-1.68v1.68h1.68z"/><path d="m31.5609 23.157h-1.68v1.68h1.68z"/><path d="m33.2406 23.157h-1.6801v1.68h1.6801z"/><path d="m34.9203 23.157h-1.6801v1.68h1.6801z"/><path d="m39.9613 23.157h-1.6801v1.68h1.6801z"/><path d="m43.3197 23.157h-1.6801v1.68h1.6801z"/><path d="m45.0003 23.157h-1.68v1.68h1.68z"/><path d="m8.03941 24.8434h-1.68003v1.6801h1.68003z"/><path d="m9.7191 24.8434h-1.68004v1.6801h1.68004z"/><path d="m18.1205 24.8434h-1.6801v1.6801h1.6801z"/><path d="m19.8011 24.8434h-1.68v1.6801h1.68z"/><path d="m21.4818 24.8434h-1.68v1.6801h1.68z"/><path d="m23.1615 24.8434h-1.6801v1.6801h1.6801z"/><path d="m26.5209 24.8434h-1.6801v1.6801h1.6801z"/><path d="m33.2406 24.8434h-1.6801v1.6801h1.6801z"/><path d="m34.9203 24.8434h-1.6801v1.6801h1.6801z"/><path d="m39.9613 24.8434h-1.6801v1.6801h1.6801z"/><path d="m45.0003 24.8434h-1.68v1.6801h1.68z"/><path d="m4.68003 26.5261h-1.68003v1.68h1.68003z"/><path d="m9.7191 26.5261h-1.68004v1.68h1.68004z"/><path d="m13.0785 26.5261h-1.6801v1.68h1.6801z"/><path d="m14.7611 26.5261h-1.68v1.68h1.68z"/><path d="m19.8011 26.5261h-1.68v1.68h1.68z"/><path d="m26.5209 26.5261h-1.6801v1.68h1.6801z"/><path d="m28.2015 26.5261h-1.68v1.68h1.68z"/><path d="m33.2406 26.5261h-1.6801v1.68h1.6801z"/><path d="m36.6009 26.5261h-1.68v1.68h1.68z"/><path d="m41.64 26.5261h-1.68v1.68h1.68z"/><path d="m43.3197 26.5261h-1.6801v1.68h1.6801z"/><path d="m45.0003 26.5261h-1.68v1.68h1.68z"/><path d="m6.3607 28.1934h-1.68004v1.68h1.68004z"/><path d="m8.03941 28.1934h-1.68003v1.68h1.68003z"/><path d="m16.4398 28.1934h-1.68v1.68h1.68z"/><path d="m18.1205 28.1934h-1.6801v1.68h1.6801z"/><path d="m19.8011 28.1934h-1.68v1.68h1.68z"/><path d="m21.4818 28.1934h-1.68v1.68h1.68z"/><path d="m23.1615 28.1934h-1.6801v1.68h1.6801z"/><path d="m26.5209 28.1934h-1.6801v1.68h1.6801z"/><path d="m28.2015 28.1934h-1.68v1.68h1.68z"/><path d="m33.2406 28.1934h-1.6801v1.68h1.6801z"/><path d="m38.2796 28.1934h-1.68v1.68h1.68z"/><path d="m39.9613 28.1934h-1.6801v1.68h1.6801z"/><path d="m43.3197 28.1934h-1.6801v1.68h1.6801z"/><path d="m4.68003 29.876h-1.68003v1.6801h1.68003z"/><path d="m8.03941 29.876h-1.68003v1.6801h1.68003z"/><path d="m9.7191 29.876h-1.68004v1.6801h1.68004z"/><path d="m11.3988 29.876h-1.68005v1.6801h1.68005z"/><path d="m13.0785 29.876h-1.6801v1.6801h1.6801z"/><path d="m14.7611 29.876h-1.68v1.6801h1.68z"/><path d="m16.4398 29.876h-1.68v1.6801h1.68z"/><path d="m24.8412 29.876h-1.6801v1.6801h1.6801z"/><path d="m26.5209 29.876h-1.6801v1.6801h1.6801z"/><path d="m29.8802 29.876h-1.68v1.6801h1.68z"/><path d="m31.5609 29.876h-1.68v1.6801h1.68z"/><path d="m33.2406 29.876h-1.6801v1.6801h1.6801z"/><path d="m34.9203 29.876h-1.6801v1.6801h1.6801z"/><path d="m36.6009 29.876h-1.68v1.6801h1.68z"/><path d="m38.2796 29.876h-1.68v1.6801h1.68z"/><path d="m39.9613 29.876h-1.6801v1.6801h1.6801z"/><path d="m18.1205 31.5625h-1.6801v1.68h1.6801z"/><path d="m19.8011 31.5625h-1.68v1.68h1.68z"/><path d="m21.4818 31.5625h-1.68v1.68h1.68z"/><path d="m23.1615 31.5625h-1.6801v1.68h1.6801z"/><path d="m24.8412 31.5625h-1.6801v1.68h1.6801z"/><path d="m29.8802 31.5625h-1.68v1.68h1.68z"/><path d="m31.5609 31.5625h-1.68v1.68h1.68z"/><path d="m38.2796 31.5625h-1.68v1.68h1.68z"/><path d="m39.9613 31.5625h-1.6801v1.68h1.6801z"/><path d="m41.64 31.5625h-1.68v1.68h1.68z"/><path d="m43.3197 31.5625h-1.6801v1.68h1.6801z"/><path d="m45.0003 31.5625h-1.68v1.68h1.68z"/><path d="m4.68003 33.2374h-1.68003v1.6801h1.68003z"/><path d="m6.3607 33.2374h-1.68004v1.6801h1.68004z"/><path d="m8.03941 33.2374h-1.68003v1.6801h1.68003z"/><path d="m9.7191 33.2374h-1.68004v1.6801h1.68004z"/><path d="m11.3988 33.2374h-1.68005v1.6801h1.68005z"/><path d="m13.0785 33.2374h-1.6801v1.6801h1.6801z"/><path d="m14.7611 33.2374h-1.68v1.6801h1.68z"/><path d="m18.1205 33.2374h-1.6801v1.6801h1.6801z"/><path d="m23.1615 33.2374h-1.6801v1.6801h1.6801z"/><path d="m24.8412 33.2374h-1.6801v1.6801h1.6801z"/><path d="m28.2015 33.2374h-1.68v1.6801h1.68z"/><path d="m29.8802 33.2374h-1.68v1.6801h1.68z"/><path d="m31.5609 33.2374h-1.68v1.6801h1.68z"/><path d="m34.9203 33.2374h-1.6801v1.6801h1.6801z"/><path d="m38.2796 33.2374h-1.68v1.6801h1.68z"/><path d="m43.3197 33.2374h-1.6801v1.6801h1.6801z"/><path d="m45.0003 33.2412h-1.68v1.6801h1.68z"/><path d="m4.68003 34.92h-1.68003v1.6801h1.68003z"/><path d="m14.7611 34.92h-1.68v1.6801h1.68z"/><path d="m18.1205 34.92h-1.6801v1.6801h1.6801z"/><path d="m24.8412 34.92h-1.6801v1.6801h1.6801z"/><path d="m26.5209 34.92h-1.6801v1.6801h1.6801z"/><path d="m31.5609 34.92h-1.68v1.6801h1.68z"/><path d="m38.2796 34.92h-1.68v1.6801h1.68z"/><path d="m39.9613 34.92h-1.6801v1.6801h1.6801z"/><path d="m43.3197 34.92h-1.6801v1.6801h1.6801z"/><path d="m4.68003 36.595h-1.68003v1.6801h1.68003z"/><path d="m8.03941 36.595h-1.68003v1.6801h1.68003z"/><path d="m9.7191 36.595h-1.68004v1.6801h1.68004z"/><path d="m11.3988 36.595h-1.68005v1.6801h1.68005z"/><path d="m14.7611 36.595h-1.68v1.6801h1.68z"/><path d="m18.1205 36.595h-1.6801v1.6801h1.6801z"/><path d="m19.8011 36.595h-1.68v1.6801h1.68z"/><path d="m21.4818 36.595h-1.68v1.6801h1.68z"/><path d="m23.1615 36.595h-1.6801v1.6801h1.6801z"/><path d="m24.8412 36.595h-1.6801v1.6801h1.6801z"/><path d="m26.5209 36.595h-1.6801v1.6801h1.6801z"/><path d="m28.2015 36.595h-1.68v1.6801h1.68z"/><path d="m31.5609 36.595h-1.68v1.6801h1.68z"/><path d="m33.2406 36.595h-1.6801v1.6801h1.6801z"/><path d="m34.9203 36.595h-1.6801v1.6801h1.6801z"/><path d="m36.6009 36.595h-1.68v1.6801h1.68z"/><path d="m38.2796 36.595h-1.68v1.6801h1.68z"/><path d="m4.68003 38.2776h-1.68003v1.6801h1.68003z"/><path d="m8.03941 38.2776h-1.68003v1.6801h1.68003z"/><path d="m9.7191 38.2776h-1.68004v1.6801h1.68004z"/><path d="m11.3988 38.2776h-1.68005v1.6801h1.68005z"/><path d="m14.7611 38.2776h-1.68v1.6801h1.68z"/><path d="m19.8011 38.2776h-1.68v1.6801h1.68z"/><path d="m23.1615 38.2776h-1.6801v1.6801h1.6801z"/><path d="m28.2015 38.2776h-1.68v1.6801h1.68z"/><path d="m29.8802 38.2776h-1.68v1.6801h1.68z"/><path d="m31.5609 38.2776h-1.68v1.6801h1.68z"/><path d="m36.6009 38.2776h-1.68v1.6801h1.68z"/><path d="m38.2796 38.2776h-1.68v1.6801h1.68z"/><path d="m41.64 38.2776h-1.68v1.6801h1.68z"/><path d="m4.68003 39.9641h-1.68003v1.68h1.68003z"/><path d="m8.03941 39.9641h-1.68003v1.68h1.68003z"/><path d="m9.7191 39.9641h-1.68004v1.68h1.68004z"/><path d="m11.3988 39.9641h-1.68005v1.68h1.68005z"/><path d="m14.7611 39.9641h-1.68v1.68h1.68z"/><path d="m18.1205 39.9641h-1.6801v1.68h1.6801z"/><path d="m28.2015 39.9641h-1.68v1.68h1.68z"/><path d="m29.8802 39.9641h-1.68v1.68h1.68z"/><path d="m36.6009 39.9641h-1.68v1.68h1.68z"/><path d="m38.2796 39.9641h-1.68v1.68h1.68z"/><path d="m39.9613 39.9641h-1.6801v1.68h1.6801z"/><path d="m45.0003 39.9641h-1.68v1.68h1.68z"/><path d="m4.68003 41.6352h-1.68003v1.6801h1.68003z"/><path d="m14.7611 41.6352h-1.68v1.6801h1.68z"/><path d="m18.1205 41.6352h-1.6801v1.6801h1.6801z"/><path d="m23.1615 41.6352h-1.6801v1.6801h1.6801z"/><path d="m26.5209 41.6352h-1.6801v1.6801h1.6801z"/><path d="m29.8802 41.6352h-1.68v1.6801h1.68z"/><path d="m31.5609 41.6352h-1.68v1.6801h1.68z"/><path d="m33.2406 41.6352h-1.6801v1.6801h1.6801z"/><path d="m34.9203 41.6352h-1.6801v1.6801h1.6801z"/><path d="m38.2796 41.6352h-1.68v1.6801h1.68z"/><path d="m39.9613 41.6352h-1.6801v1.6801h1.6801z"/><path d="m43.3197 41.6352h-1.6801v1.6801h1.6801z"/><path d="m4.68003 43.3217h-1.68003v1.68h1.68003z"/><path d="m6.3607 43.3217h-1.68004v1.68h1.68004z"/><path d="m8.03941 43.3217h-1.68003v1.68h1.68003z"/><path d="m9.72007 43.3217h-1.68003v1.68h1.68003z"/><path d="m11.3988 43.3217h-1.68005v1.68h1.68005z"/><path d="m13.0794 43.3217h-1.68v1.68h1.68z"/><path d="m14.7611 43.3217h-1.68v1.68h1.68z"/><path d="m18.1205 43.3217h-1.6801v1.68h1.6801z"/><path d="m26.5218 43.3217h-1.68v1.68h1.68z"/><path d="m29.8812 43.3217h-1.68v1.68h1.68z"/><path d="m31.5609 43.3217h-1.68v1.68h1.68z"/><path d="m33.2425 43.3217h-1.68v1.68h1.68z"/><path d="m34.9203 43.3217h-1.6801v1.68h1.6801z"/><path d="m36.6019 43.3217h-1.68v1.68h1.68z"/><path d="m43.3207 43.3217h-1.6801v1.68h1.6801z"/><path d="m45.0003 43.3217h-1.68v1.68h1.68z"/></g></svg>