<svg width="16" height="16" viewBox="0 0 16 16" fill="none" xmlns="http://www.w3.org/2000/svg">
<path d="M9.04935 1.49087C9.44615 1.32664 10.0363 1.09811 10.6226 1.32879C10.7034 1.36059 10.7835 1.39381 10.8628 1.42842C11.4398 1.68016 11.6955 2.25866 11.86 2.65522C11.8894 2.72612 11.9162 2.79274 11.9418 2.85639C11.9992 2.99873 12.0506 3.12622 12.1111 3.2531C12.1955 3.43015 12.2755 3.55473 12.36 3.63931C12.4446 3.7239 12.5692 3.80383 12.7463 3.88828C12.8732 3.9488 13.0006 4.00015 13.143 4.0575C13.2066 4.08313 13.2733 4.11 13.3442 4.13938C13.7408 4.30384 14.3193 4.55944 14.5711 5.13647C14.6057 5.21593 14.639 5.29613 14.6709 5.37706C14.9015 5.96334 14.673 6.5535 14.5088 6.9503C14.4795 7.02109 14.4514 7.08707 14.4245 7.1501L14.4244 7.1505C14.3642 7.29168 14.3103 7.41831 14.2634 7.55083C14.1978 7.73581 14.1662 7.88046 14.1662 8.0001C14.1662 8.11975 14.1978 8.2644 14.2634 8.44937C14.3103 8.5819 14.3641 8.70829 14.4243 8.84947L14.4246 8.85012C14.4514 8.91306 14.4795 8.97923 14.5088 9.0499C14.673 9.44671 14.9015 10.0369 14.6709 10.6231C14.6391 10.7039 14.6059 10.7838 14.5714 10.8631C14.3196 11.4402 13.741 11.6959 13.3443 11.8603C13.2735 11.8897 13.207 11.9165 13.1434 11.9421L13.1433 11.9421C13.001 11.9995 12.8732 12.0509 12.7463 12.1114C12.5692 12.1959 12.4446 12.2758 12.36 12.3604C12.2755 12.445 12.1955 12.5696 12.1111 12.7467C12.0506 12.8736 11.9992 13.001 11.9419 13.1433C11.9163 13.207 11.8893 13.2738 11.86 13.3447C11.6955 13.7414 11.4399 14.32 10.8628 14.5718C10.7834 14.6064 10.7034 14.6396 10.6226 14.6714C10.0363 14.9021 9.44617 14.6736 9.04936 14.5093C8.97838 14.48 8.91223 14.4518 8.84905 14.4249C8.70788 14.3648 8.58134 14.3109 8.44883 14.2639C8.26386 14.1984 8.11921 14.1668 7.99956 14.1668C7.87992 14.1668 7.73527 14.1984 7.55029 14.2639C7.41782 14.3109 7.29148 14.3647 7.15036 14.4248L7.15001 14.4249C7.08689 14.4518 7.02066 14.48 6.94976 14.5093C6.55296 14.6736 5.96279 14.9021 5.37652 14.6714C5.29572 14.6396 5.21564 14.6064 5.13631 14.5718C4.55922 14.32 4.3036 13.7414 4.13914 13.3448C4.10974 13.2739 4.0829 13.2073 4.05726 13.1436C3.9999 13.0012 3.94855 12.8738 3.88803 12.7468C3.80358 12.5698 3.72364 12.4452 3.63905 12.3606C3.55447 12.276 3.42988 12.1961 3.25279 12.1116C3.12597 12.0511 2.9986 11.9998 2.85634 11.9425L2.85616 11.9424C2.79261 11.9168 2.7256 11.8898 2.65483 11.8605C2.25821 11.696 1.67961 11.4404 1.42785 10.8633C1.39324 10.784 1.36003 10.7039 1.32824 10.6231C1.09756 10.0369 1.32609 9.44671 1.49032 9.0499C1.51971 8.9789 1.54788 8.91274 1.5748 8.84955C1.63492 8.70837 1.68878 8.58189 1.73574 8.44937C1.80129 8.26439 1.83288 8.11974 1.83288 8.0001C1.83288 7.88045 1.80129 7.7358 1.73574 7.55083C1.68878 7.41831 1.63496 7.29192 1.57483 7.15074C1.54791 7.08752 1.51972 7.02133 1.49032 6.9503C1.32609 6.55349 1.09756 5.96333 1.32825 5.37705C1.36006 5.2962 1.3933 5.21606 1.42794 5.13667C1.6797 4.55962 2.25828 4.304 2.65488 4.13954C2.72576 4.11015 2.79238 4.08331 2.85602 4.05767L2.85603 4.05767C2.9984 4.00032 3.12591 3.94895 3.25281 3.88843C3.42989 3.80398 3.55447 3.72405 3.63906 3.63946C3.72364 3.55488 3.80358 3.43029 3.88803 3.25322C3.94855 3.12633 3.99989 2.99888 4.05725 2.85652C4.08289 2.79286 4.10974 2.72621 4.13915 2.6553C4.30362 2.25872 4.55924 1.68016 5.1363 1.42841C5.21562 1.39381 5.2957 1.36059 5.3765 1.3288C5.96277 1.09812 6.55293 1.32664 6.94974 1.49087C7.02077 1.52027 7.08696 1.54846 7.15018 1.57538C7.29136 1.63551 7.41775 1.68933 7.55027 1.73629C7.73525 1.80184 7.8799 1.83344 7.99954 1.83344C8.11919 1.83344 8.26384 1.80184 8.44882 1.73629C8.58134 1.68933 8.70772 1.63551 8.8489 1.57538C8.91212 1.54846 8.97832 1.52027 9.04935 1.49087Z" fill="#9752FF"/>
<circle cx="9.70567" cy="9.70518" r="0.961529" fill="white"/>
<circle cx="6.29551" cy="6.2949" r="0.961529" fill="white"/>
<path d="M9.92326 6.077L6.07715 9.92311" stroke="white" stroke-width="1.23076" stroke-linecap="round" stroke-linejoin="round"/>
</svg>
