<svg width="22" height="13" viewBox="0 0 22 13" fill="none" xmlns="http://www.w3.org/2000/svg"><path d="M21.1152 13H18.7079C17.7966 13 17.5215 12.2646 15.888 10.6399C14.4608 9.27181 13.859 9.10075 13.4979 9.10075C12.9993 9.10075 12.8617 9.23754 12.8617 9.92164V12.0765C12.8617 12.658 12.6726 13 11.1423 13C9.65726 12.9008 8.21721 12.4521 6.9407 11.6909C5.66419 10.9297 4.58775 9.87784 3.80002 8.62187C1.92995 6.30679 0.62878 3.58966 0 0.686567C0 0.327426 0.13752 0.00246528 0.825352 0.00246528H3.23259C3.8516 0.00246528 4.07518 0.276119 4.31586 0.908931C5.48507 4.32929 7.47975 7.30504 8.28787 7.30504C8.59738 7.30504 8.7349 7.16826 8.7349 6.39867V2.8756C8.63173 1.26807 7.77203 1.1312 7.77203 0.54979C7.78335 0.396395 7.85433 0.253427 7.9699 0.151237C8.08548 0.0490463 8.23655 -0.00432044 8.39104 0.00246528H12.1739C12.6898 0.00246528 12.8617 0.258995 12.8617 0.874667V5.62908C12.8617 6.14214 13.0852 6.3131 13.24 6.3131C13.5495 6.3131 13.7902 6.14214 14.3576 5.57778C15.577 4.09882 16.5733 2.45112 17.3152 0.686567C17.3909 0.474246 17.5344 0.292422 17.7238 0.168887C17.9132 0.0453521 18.1381 -0.0130994 18.3641 0.00246528H20.7713C21.4935 0.00246528 21.6483 0.361607 21.4935 0.874667C20.6176 2.82563 19.5339 4.67755 18.2609 6.39867C18.003 6.79198 17.8998 6.9972 18.2609 7.45896C18.5016 7.8181 19.3442 8.51926 19.9116 9.18623C20.7369 10.0051 21.4223 10.9525 21.9405 11.991C22.1469 12.658 21.803 13 21.1152 13Z" fill="#86888F"/></svg>