<svg width="21" height="14" viewBox="0 0 21 14" fill="none" xmlns="http://www.w3.org/2000/svg"><path d="M20.011 4.93404C20.0559 3.6386 19.7716 2.35286 19.1843 1.19619C18.7858 0.721579 18.2328 0.401293 17.6216 0.291139C15.0937 0.0626371 12.5553 -0.0310183 10.0173 0.0105739C7.4886 -0.0329061 4.95935 0.0577271 2.44029 0.282089C1.94226 0.372337 1.48137 0.605048 1.11386 0.951825C0.29619 1.70302 0.205338 2.98818 0.114486 4.07424C-0.0173287 6.02694 -0.0173287 7.98626 0.114486 9.93896C0.14077 10.5502 0.232134 11.157 0.387041 11.7491C0.496586 12.2062 0.718217 12.6291 1.03209 12.9799C1.4021 13.3451 1.87373 13.591 2.38578 13.6859C4.34447 13.9267 6.31804 14.0265 8.29114 13.9845C11.471 14.0298 14.2601 13.9845 17.558 13.7311C18.0826 13.6421 18.5676 13.3958 18.9481 13.0252C19.2024 12.7717 19.3924 12.4614 19.5022 12.1201C19.8272 11.1269 19.9867 10.0875 19.9747 9.04296C20.011 8.53613 20.011 5.47707 20.011 4.93404ZM7.96408 9.58599V3.98374L13.3425 6.79844C11.8344 7.63109 9.84471 8.57234 7.96408 9.58599Z" fill="#86888F"/></svg>